<mxfile host="app.diagrams.net" agent="Mozilla/5.0 (Windows NT 10.0; Win64; x64) AppleWebKit/537.36 (KHTML, like Gecko) Chrome/140.0.0.0 Safari/537.36 Edg/140.0.0.0" version="28.2.0">
  <diagram name="PÃ¡gina-1" id="4hnVqMUnmZAzR-emFfYd">
    <mxGraphModel dx="915" dy="551" grid="1" gridSize="10" guides="1" tooltips="1" connect="1" arrows="1" fold="1" page="1" pageScale="1" pageWidth="827" pageHeight="1169" math="0" shadow="0">
      <root>
        <mxCell id="0" />
        <mxCell id="1" parent="0" />
        <mxCell id="JHxpiXn5WHvMar_2JMiJ-1" value="Cliente" style="rounded=0;whiteSpace=wrap;html=1;" vertex="1" parent="1">
          <mxGeometry x="190" y="140" width="120" height="60" as="geometry" />
        </mxCell>
        <mxCell id="JHxpiXn5WHvMar_2JMiJ-8" style="edgeStyle=none;shape=connector;rounded=0;orthogonalLoop=1;jettySize=auto;html=1;exitX=0.5;exitY=1;exitDx=0;exitDy=0;entryX=0.5;entryY=0;entryDx=0;entryDy=0;strokeColor=default;align=center;verticalAlign=middle;fontFamily=Helvetica;fontSize=11;fontColor=default;labelBackgroundColor=default;endArrow=none;endFill=0;" edge="1" parent="1" source="JHxpiXn5WHvMar_2JMiJ-2" target="JHxpiXn5WHvMar_2JMiJ-1">
          <mxGeometry relative="1" as="geometry" />
        </mxCell>
        <mxCell id="JHxpiXn5WHvMar_2JMiJ-2" value="PK_ID_Cliente" style="ellipse;whiteSpace=wrap;html=1;" vertex="1" parent="1">
          <mxGeometry x="150" y="30" width="91.67" height="50" as="geometry" />
        </mxCell>
        <mxCell id="JHxpiXn5WHvMar_2JMiJ-9" style="edgeStyle=none;shape=connector;rounded=0;orthogonalLoop=1;jettySize=auto;html=1;exitX=0.5;exitY=1;exitDx=0;exitDy=0;strokeColor=default;align=center;verticalAlign=middle;fontFamily=Helvetica;fontSize=11;fontColor=default;labelBackgroundColor=default;endArrow=none;endFill=0;" edge="1" parent="1" source="JHxpiXn5WHvMar_2JMiJ-3">
          <mxGeometry relative="1" as="geometry">
            <mxPoint x="260" y="140" as="targetPoint" />
          </mxGeometry>
        </mxCell>
        <mxCell id="JHxpiXn5WHvMar_2JMiJ-3" value="Nome" style="ellipse;whiteSpace=wrap;html=1;" vertex="1" parent="1">
          <mxGeometry x="290" y="30" width="91.67" height="50" as="geometry" />
        </mxCell>
        <mxCell id="JHxpiXn5WHvMar_2JMiJ-10" style="edgeStyle=none;shape=connector;rounded=0;orthogonalLoop=1;jettySize=auto;html=1;exitX=0;exitY=0.5;exitDx=0;exitDy=0;entryX=1;entryY=0;entryDx=0;entryDy=0;strokeColor=default;align=center;verticalAlign=middle;fontFamily=Helvetica;fontSize=11;fontColor=default;labelBackgroundColor=default;endArrow=none;endFill=0;" edge="1" parent="1" source="JHxpiXn5WHvMar_2JMiJ-4" target="JHxpiXn5WHvMar_2JMiJ-1">
          <mxGeometry relative="1" as="geometry" />
        </mxCell>
        <mxCell id="JHxpiXn5WHvMar_2JMiJ-4" value="Endereco" style="ellipse;whiteSpace=wrap;html=1;" vertex="1" parent="1">
          <mxGeometry x="381.67" y="100" width="91.67" height="50" as="geometry" />
        </mxCell>
        <mxCell id="JHxpiXn5WHvMar_2JMiJ-7" style="rounded=0;orthogonalLoop=1;jettySize=auto;html=1;exitX=1;exitY=0.5;exitDx=0;exitDy=0;entryX=0;entryY=0;entryDx=0;entryDy=0;endArrow=none;endFill=0;" edge="1" parent="1" source="JHxpiXn5WHvMar_2JMiJ-6" target="JHxpiXn5WHvMar_2JMiJ-1">
          <mxGeometry relative="1" as="geometry" />
        </mxCell>
        <mxCell id="JHxpiXn5WHvMar_2JMiJ-6" value="Telefone" style="ellipse;shape=doubleEllipse;whiteSpace=wrap;html=1;" vertex="1" parent="1">
          <mxGeometry x="30" y="90" width="100" height="60" as="geometry" />
        </mxCell>
        <mxCell id="JHxpiXn5WHvMar_2JMiJ-20" style="edgeStyle=none;shape=connector;rounded=0;orthogonalLoop=1;jettySize=auto;html=1;entryX=0.5;entryY=1;entryDx=0;entryDy=0;strokeColor=default;align=center;verticalAlign=middle;fontFamily=Helvetica;fontSize=11;fontColor=default;labelBackgroundColor=default;endArrow=none;endFill=0;" edge="1" parent="1" source="JHxpiXn5WHvMar_2JMiJ-11" target="JHxpiXn5WHvMar_2JMiJ-13">
          <mxGeometry relative="1" as="geometry" />
        </mxCell>
        <mxCell id="JHxpiXn5WHvMar_2JMiJ-11" value="Cobranca" style="rounded=0;whiteSpace=wrap;html=1;" vertex="1" parent="1">
          <mxGeometry x="670" y="140" width="120" height="60" as="geometry" />
        </mxCell>
        <mxCell id="JHxpiXn5WHvMar_2JMiJ-18" style="edgeStyle=none;shape=connector;rounded=0;orthogonalLoop=1;jettySize=auto;html=1;exitX=1;exitY=1;exitDx=0;exitDy=0;strokeColor=default;align=center;verticalAlign=middle;fontFamily=Helvetica;fontSize=11;fontColor=default;labelBackgroundColor=default;endArrow=none;endFill=0;" edge="1" parent="1" source="JHxpiXn5WHvMar_2JMiJ-12" target="JHxpiXn5WHvMar_2JMiJ-11">
          <mxGeometry relative="1" as="geometry" />
        </mxCell>
        <mxCell id="JHxpiXn5WHvMar_2JMiJ-12" value="Nome_vendedor" style="ellipse;whiteSpace=wrap;html=1;" vertex="1" parent="1">
          <mxGeometry x="570" y="80" width="91.67" height="50" as="geometry" />
        </mxCell>
        <mxCell id="JHxpiXn5WHvMar_2JMiJ-13" value="vencimento" style="ellipse;whiteSpace=wrap;html=1;" vertex="1" parent="1">
          <mxGeometry x="684.17" y="50" width="91.67" height="50" as="geometry" />
        </mxCell>
        <mxCell id="JHxpiXn5WHvMar_2JMiJ-21" style="edgeStyle=none;shape=connector;rounded=0;orthogonalLoop=1;jettySize=auto;html=1;exitX=0;exitY=0.5;exitDx=0;exitDy=0;strokeColor=default;align=center;verticalAlign=middle;fontFamily=Helvetica;fontSize=11;fontColor=default;labelBackgroundColor=default;endArrow=none;endFill=0;" edge="1" parent="1" source="JHxpiXn5WHvMar_2JMiJ-14" target="JHxpiXn5WHvMar_2JMiJ-11">
          <mxGeometry relative="1" as="geometry" />
        </mxCell>
        <mxCell id="JHxpiXn5WHvMar_2JMiJ-14" value="condicao de pagamento" style="ellipse;whiteSpace=wrap;html=1;" vertex="1" parent="1">
          <mxGeometry x="820" y="80" width="91.67" height="50" as="geometry" />
        </mxCell>
        <mxCell id="JHxpiXn5WHvMar_2JMiJ-22" style="edgeStyle=none;shape=connector;rounded=0;orthogonalLoop=1;jettySize=auto;html=1;exitX=0;exitY=0.5;exitDx=0;exitDy=0;strokeColor=default;align=center;verticalAlign=middle;fontFamily=Helvetica;fontSize=11;fontColor=default;labelBackgroundColor=default;endArrow=none;endFill=0;" edge="1" parent="1" source="JHxpiXn5WHvMar_2JMiJ-15" target="JHxpiXn5WHvMar_2JMiJ-11">
          <mxGeometry relative="1" as="geometry" />
        </mxCell>
        <mxCell id="JHxpiXn5WHvMar_2JMiJ-15" value="data_entrega" style="ellipse;whiteSpace=wrap;html=1;" vertex="1" parent="1">
          <mxGeometry x="860" y="150" width="91.67" height="50" as="geometry" />
        </mxCell>
        <mxCell id="JHxpiXn5WHvMar_2JMiJ-23" style="edgeStyle=none;shape=connector;rounded=0;orthogonalLoop=1;jettySize=auto;html=1;exitX=0;exitY=0.5;exitDx=0;exitDy=0;strokeColor=default;align=center;verticalAlign=middle;fontFamily=Helvetica;fontSize=11;fontColor=default;labelBackgroundColor=default;endArrow=none;endFill=0;" edge="1" parent="1" source="JHxpiXn5WHvMar_2JMiJ-16" target="JHxpiXn5WHvMar_2JMiJ-11">
          <mxGeometry relative="1" as="geometry" />
        </mxCell>
        <mxCell id="JHxpiXn5WHvMar_2JMiJ-16" value="forma_transporte" style="ellipse;whiteSpace=wrap;html=1;" vertex="1" parent="1">
          <mxGeometry x="827" y="230" width="91.67" height="50" as="geometry" />
        </mxCell>
        <mxCell id="JHxpiXn5WHvMar_2JMiJ-25" style="edgeStyle=none;shape=connector;rounded=0;orthogonalLoop=1;jettySize=auto;html=1;exitX=0.5;exitY=0;exitDx=0;exitDy=0;strokeColor=default;align=center;verticalAlign=middle;fontFamily=Helvetica;fontSize=11;fontColor=default;labelBackgroundColor=default;endArrow=none;endFill=0;" edge="1" parent="1" source="JHxpiXn5WHvMar_2JMiJ-17" target="JHxpiXn5WHvMar_2JMiJ-11">
          <mxGeometry relative="1" as="geometry" />
        </mxCell>
        <mxCell id="JHxpiXn5WHvMar_2JMiJ-17" value="termos_de_envio" style="ellipse;whiteSpace=wrap;html=1;" vertex="1" parent="1">
          <mxGeometry x="684.17" y="260" width="91.67" height="50" as="geometry" />
        </mxCell>
        <mxCell id="JHxpiXn5WHvMar_2JMiJ-26" value="fatura" style="rounded=0;whiteSpace=wrap;html=1;" vertex="1" parent="1">
          <mxGeometry x="450" y="330" width="120" height="60" as="geometry" />
        </mxCell>
        <mxCell id="JHxpiXn5WHvMar_2JMiJ-29" style="edgeStyle=none;shape=connector;rounded=0;orthogonalLoop=1;jettySize=auto;html=1;exitX=1;exitY=1;exitDx=0;exitDy=0;strokeColor=default;align=center;verticalAlign=middle;fontFamily=Helvetica;fontSize=11;fontColor=default;labelBackgroundColor=default;endArrow=none;endFill=0;" edge="1" parent="1" source="JHxpiXn5WHvMar_2JMiJ-27" target="JHxpiXn5WHvMar_2JMiJ-26">
          <mxGeometry relative="1" as="geometry" />
        </mxCell>
        <mxCell id="JHxpiXn5WHvMar_2JMiJ-27" value="PK_ID_ITEM" style="ellipse;whiteSpace=wrap;html=1;fontStyle=4" vertex="1" parent="1">
          <mxGeometry x="358.33" y="260" width="91.67" height="50" as="geometry" />
        </mxCell>
        <mxCell id="JHxpiXn5WHvMar_2JMiJ-30" style="edgeStyle=none;shape=connector;rounded=0;orthogonalLoop=1;jettySize=auto;html=1;exitX=1;exitY=0.5;exitDx=0;exitDy=0;strokeColor=default;align=center;verticalAlign=middle;fontFamily=Helvetica;fontSize=11;fontColor=default;labelBackgroundColor=default;endArrow=none;endFill=0;" edge="1" parent="1" source="JHxpiXn5WHvMar_2JMiJ-28" target="JHxpiXn5WHvMar_2JMiJ-26">
          <mxGeometry relative="1" as="geometry" />
        </mxCell>
        <mxCell id="JHxpiXn5WHvMar_2JMiJ-28" value="Qtd." style="ellipse;whiteSpace=wrap;html=1;" vertex="1" parent="1">
          <mxGeometry x="310" y="350" width="91.67" height="50" as="geometry" />
        </mxCell>
        <mxCell id="JHxpiXn5WHvMar_2JMiJ-35" style="edgeStyle=none;shape=connector;rounded=0;orthogonalLoop=1;jettySize=auto;html=1;exitX=1;exitY=0;exitDx=0;exitDy=0;strokeColor=default;align=center;verticalAlign=middle;fontFamily=Helvetica;fontSize=11;fontColor=default;labelBackgroundColor=default;endArrow=none;endFill=0;" edge="1" parent="1" source="JHxpiXn5WHvMar_2JMiJ-31" target="JHxpiXn5WHvMar_2JMiJ-26">
          <mxGeometry relative="1" as="geometry" />
        </mxCell>
        <mxCell id="JHxpiXn5WHvMar_2JMiJ-31" value="descricao" style="ellipse;whiteSpace=wrap;html=1;" vertex="1" parent="1">
          <mxGeometry x="322" y="430" width="91.67" height="50" as="geometry" />
        </mxCell>
        <mxCell id="JHxpiXn5WHvMar_2JMiJ-36" style="edgeStyle=none;shape=connector;rounded=0;orthogonalLoop=1;jettySize=auto;html=1;strokeColor=default;align=center;verticalAlign=middle;fontFamily=Helvetica;fontSize=11;fontColor=default;labelBackgroundColor=default;endArrow=none;endFill=0;entryX=0.25;entryY=1;entryDx=0;entryDy=0;" edge="1" parent="1" source="JHxpiXn5WHvMar_2JMiJ-32" target="JHxpiXn5WHvMar_2JMiJ-26">
          <mxGeometry relative="1" as="geometry" />
        </mxCell>
        <mxCell id="JHxpiXn5WHvMar_2JMiJ-32" value="preco unidade" style="ellipse;whiteSpace=wrap;html=1;" vertex="1" parent="1">
          <mxGeometry x="440" y="450" width="91.67" height="50" as="geometry" />
        </mxCell>
        <mxCell id="JHxpiXn5WHvMar_2JMiJ-33" value="desconto" style="ellipse;whiteSpace=wrap;html=1;" vertex="1" parent="1">
          <mxGeometry x="550" y="450" width="91.67" height="50" as="geometry" />
        </mxCell>
        <mxCell id="JHxpiXn5WHvMar_2JMiJ-38" style="edgeStyle=none;shape=connector;rounded=0;orthogonalLoop=1;jettySize=auto;html=1;strokeColor=default;align=center;verticalAlign=middle;fontFamily=Helvetica;fontSize=11;fontColor=default;labelBackgroundColor=default;endArrow=none;endFill=0;" edge="1" parent="1" source="JHxpiXn5WHvMar_2JMiJ-34" target="JHxpiXn5WHvMar_2JMiJ-26">
          <mxGeometry relative="1" as="geometry" />
        </mxCell>
        <mxCell id="JHxpiXn5WHvMar_2JMiJ-34" value="total_linha" style="ellipse;whiteSpace=wrap;html=1;" vertex="1" parent="1">
          <mxGeometry x="620" y="380" width="91.67" height="50" as="geometry" />
        </mxCell>
        <mxCell id="JHxpiXn5WHvMar_2JMiJ-37" style="edgeStyle=none;shape=connector;rounded=0;orthogonalLoop=1;jettySize=auto;html=1;entryX=0.638;entryY=0.964;entryDx=0;entryDy=0;entryPerimeter=0;strokeColor=default;align=center;verticalAlign=middle;fontFamily=Helvetica;fontSize=11;fontColor=default;labelBackgroundColor=default;endArrow=none;endFill=0;" edge="1" parent="1" source="JHxpiXn5WHvMar_2JMiJ-33" target="JHxpiXn5WHvMar_2JMiJ-26">
          <mxGeometry relative="1" as="geometry" />
        </mxCell>
        <mxCell id="JHxpiXn5WHvMar_2JMiJ-44" style="edgeStyle=none;shape=connector;rounded=0;orthogonalLoop=1;jettySize=auto;html=1;exitX=0;exitY=0.5;exitDx=0;exitDy=0;strokeColor=default;align=center;verticalAlign=middle;fontFamily=Helvetica;fontSize=11;fontColor=default;labelBackgroundColor=default;endArrow=none;endFill=0;" edge="1" parent="1" source="JHxpiXn5WHvMar_2JMiJ-39" target="JHxpiXn5WHvMar_2JMiJ-26">
          <mxGeometry relative="1" as="geometry" />
        </mxCell>
        <mxCell id="JHxpiXn5WHvMar_2JMiJ-39" value="subtotal" style="ellipse;whiteSpace=wrap;html=1;" vertex="1" parent="1">
          <mxGeometry x="592.5" y="320" width="91.67" height="50" as="geometry" />
        </mxCell>
        <mxCell id="JHxpiXn5WHvMar_2JMiJ-43" style="edgeStyle=none;shape=connector;rounded=0;orthogonalLoop=1;jettySize=auto;html=1;exitX=0;exitY=1;exitDx=0;exitDy=0;entryX=0.75;entryY=0;entryDx=0;entryDy=0;strokeColor=default;align=center;verticalAlign=middle;fontFamily=Helvetica;fontSize=11;fontColor=default;labelBackgroundColor=default;endArrow=none;endFill=0;" edge="1" parent="1" source="JHxpiXn5WHvMar_2JMiJ-40" target="JHxpiXn5WHvMar_2JMiJ-26">
          <mxGeometry relative="1" as="geometry" />
        </mxCell>
        <mxCell id="JHxpiXn5WHvMar_2JMiJ-40" value="imposto" style="ellipse;whiteSpace=wrap;html=1;" vertex="1" parent="1">
          <mxGeometry x="560" y="250" width="91.67" height="50" as="geometry" />
        </mxCell>
        <mxCell id="JHxpiXn5WHvMar_2JMiJ-42" style="edgeStyle=none;shape=connector;rounded=0;orthogonalLoop=1;jettySize=auto;html=1;strokeColor=default;align=center;verticalAlign=middle;fontFamily=Helvetica;fontSize=11;fontColor=default;labelBackgroundColor=default;endArrow=none;endFill=0;" edge="1" parent="1" source="JHxpiXn5WHvMar_2JMiJ-41" target="JHxpiXn5WHvMar_2JMiJ-26">
          <mxGeometry relative="1" as="geometry" />
        </mxCell>
        <mxCell id="JHxpiXn5WHvMar_2JMiJ-41" value="total" style="ellipse;whiteSpace=wrap;html=1;" vertex="1" parent="1">
          <mxGeometry x="458.33" y="240" width="91.67" height="50" as="geometry" />
        </mxCell>
      </root>
    </mxGraphModel>
  </diagram>
</mxfile>
